<!-- 
这是一个经过优化和重构的 SVG 图标。
它使用多个基本形状来模拟复杂效果，以确保在不同软件中的兼容性。
图标尺寸为 1024x1024 像素，没有空白像素。
-->
<svg width="1024" height="1024" viewBox="0 0 100 100" xmlns="http://www.w3.org/2000/svg">
  <!-- 主体背景，深色 -->
  <rect x="0" y="0" width="100" height="100" fill="#1e293b" />
  
  <!-- 内部胶片卷轴的阴影效果，通过一个稍暗的矩形模拟 -->
  <rect x="16" y="11" width="70" height="70" rx="4" fill="#1a2333" />

  <!-- 内部胶片卷轴主体，带轻微圆角和模拟的立体感 -->
  <rect x="15" y="10" width="70" height="70" rx="4" fill="#a8b4c2" />

  <!-- 胶片孔的凹陷效果，使用多个深色矩形模拟 -->
  <rect x="22" y="22" width="6" height="6" rx="1" fill="#2a3e5c" />
  <rect x="22" y="38" width="6" height="6" rx="1" fill="#2a3e5c" />
  <rect x="22" y="54" width="6" height="6" rx="1" fill="#2a3e5c" />
  <rect x="22" y="70" width="6" height="6" rx="1" fill="#2a3e5c" />

  <!-- 另一侧胶片孔的凹陷效果 -->
  <rect x="72" y="22" width="6" height="6" rx="1" fill="#2a3e5c" />
  <rect x="72" y="38" width="6" height="6" rx="1" fill="#2a3e5c" />
  <rect x="72" y="54" width="6" height="6" rx="1" fill="#2a3e5c" />
  <rect x="72" y="70" width="6" height="6" rx="1" fill="#2a3e5c" />
  
  <!-- TMDB 标识，带模拟阴影 -->
  <text x="50.5" y="90.5" font-family="Verdana, sans-serif" font-size="6" font-weight="bold" fill="#000000" opacity="0.3" text-anchor="middle">
    powered by TMDB
  </text>
  <text x="50" y="90" font-family="Verdana, sans-serif" font-size="6" font-weight="bold" fill="#ffffff" text-anchor="middle">
    powered by TMDB
  </text>
</svg>
